<svg width="31" height="30" viewBox="0 0 31 30" fill="none" xmlns="http://www.w3.org/2000/svg">
<path d="M15.4056 0.9375C9.31188 0.9375 4.10876 4.875 2.18688 10.3125H28.7181C26.7494 4.875 21.5463 0.9375 15.4056 0.9375Z" fill="#F2B200"/>
<path d="M15.4056 29.0625C21.5463 29.0625 26.7494 25.1719 28.6713 19.6875H2.18688C4.10876 25.1719 9.31188 29.0625 15.4056 29.0625Z" fill="#83BF4F"/>
<path d="M2.18812 10.3125C1.67249 11.7656 1.39124 13.3594 1.39124 15C1.39124 16.6406 1.67249 18.2344 2.18812 19.6875H28.7194C29.235 18.2344 29.5162 16.6406 29.5162 15C29.5162 13.3594 29.235 11.7656 28.7194 10.3125H2.18812Z" fill="white"/>
<path d="M15.4075 18.75C17.4786 18.75 19.1575 17.0711 19.1575 15C19.1575 12.9289 17.4786 11.25 15.4075 11.25C13.3364 11.25 11.6575 12.9289 11.6575 15C11.6575 17.0711 13.3364 18.75 15.4075 18.75Z" fill="#428BC1"/>
<path d="M15.4075 18.2812C17.2197 18.2812 18.6887 16.8122 18.6887 15C18.6887 13.1878 17.2197 11.7188 15.4075 11.7188C13.5953 11.7188 12.1262 13.1878 12.1262 15C12.1262 16.8122 13.5953 18.2812 15.4075 18.2812Z" fill="white"/>
<path d="M14.19 12.1876C14.3194 12.1876 14.4243 12.0827 14.4243 11.9532C14.4243 11.8238 14.3194 11.7189 14.19 11.7189C14.0605 11.7189 13.9556 11.8238 13.9556 11.9532C13.9556 12.0827 14.0605 12.1876 14.19 12.1876Z" fill="#428BC1"/>
<path d="M13.4375 12.6093C13.5669 12.6093 13.6719 12.5044 13.6719 12.375C13.6719 12.2455 13.5669 12.1406 13.4375 12.1406C13.3081 12.1406 13.2031 12.2455 13.2031 12.375C13.2031 12.5044 13.3081 12.6093 13.4375 12.6093Z" fill="#428BC1"/>
<path d="M12.83 13.2188C12.9594 13.2188 13.0644 13.1138 13.0644 12.9844C13.0644 12.855 12.9594 12.75 12.83 12.75C12.7005 12.75 12.5956 12.855 12.5956 12.9844C12.5956 13.1138 12.7005 13.2188 12.83 13.2188Z" fill="#428BC1"/>
<path d="M12.4075 13.9686C12.5369 13.9686 12.6419 13.8636 12.6419 13.7342C12.6419 13.6047 12.5369 13.4998 12.4075 13.4998C12.278 13.4998 12.1731 13.6047 12.1731 13.7342C12.1731 13.8636 12.278 13.9686 12.4075 13.9686Z" fill="#428BC1"/>
<path d="M12.1731 14.8124C12.3026 14.8124 12.4075 14.7074 12.4075 14.578C12.4075 14.4486 12.3026 14.3436 12.1731 14.3436C12.0437 14.3436 11.9387 14.4486 11.9387 14.578C11.9387 14.7074 12.0437 14.8124 12.1731 14.8124Z" fill="#428BC1"/>
<path d="M12.1731 15.6562C12.3026 15.6562 12.4075 15.5513 12.4075 15.4218C12.4075 15.2924 12.3026 15.1875 12.1731 15.1875C12.0437 15.1875 11.9387 15.2924 11.9387 15.4218C11.9387 15.5513 12.0437 15.6562 12.1731 15.6562Z" fill="#428BC1"/>
<path d="M12.4075 16.5C12.5369 16.5 12.6419 16.3951 12.6419 16.2657C12.6419 16.1362 12.5369 16.0313 12.4075 16.0313C12.278 16.0313 12.1731 16.1362 12.1731 16.2657C12.1731 16.3951 12.278 16.5 12.4075 16.5Z" fill="#428BC1"/>
<path d="M12.83 17.2498C12.9594 17.2498 13.0644 17.1449 13.0644 17.0154C13.0644 16.886 12.9594 16.7811 12.83 16.7811C12.7005 16.7811 12.5956 16.886 12.5956 17.0154C12.5956 17.1449 12.7005 17.2498 12.83 17.2498Z" fill="#428BC1"/>
<path d="M13.4375 17.8593C13.5669 17.8593 13.6719 17.7543 13.6719 17.6249C13.6719 17.4954 13.5669 17.3905 13.4375 17.3905C13.3081 17.3905 13.2031 17.4954 13.2031 17.6249C13.2031 17.7543 13.3081 17.8593 13.4375 17.8593Z" fill="#428BC1"/>
<path d="M14.19 18.2814C14.3194 18.2814 14.4243 18.1764 14.4243 18.047C14.4243 17.9175 14.3194 17.8126 14.19 17.8126C14.0605 17.8126 13.9556 17.9175 13.9556 18.047C13.9556 18.1764 14.0605 18.2814 14.19 18.2814Z" fill="#428BC1"/>
<path d="M14.9856 18.4687C15.1151 18.4687 15.22 18.3638 15.22 18.2343C15.22 18.1049 15.1151 18 14.9856 18C14.8562 18 14.7512 18.1049 14.7512 18.2343C14.7512 18.3638 14.8562 18.4687 14.9856 18.4687Z" fill="#428BC1"/>
<path d="M15.6425 18.2812C15.6425 18.1406 15.7362 18.0468 15.83 18C15.9706 18 16.0644 18.0937 16.1112 18.1875C16.1112 18.3281 16.0175 18.4218 15.9237 18.4687C15.7362 18.5156 15.6425 18.4218 15.6425 18.2812Z" fill="#428BC1"/>
<path d="M16.6725 18.2814C16.8019 18.2814 16.9069 18.1764 16.9069 18.047C16.9069 17.9175 16.8019 17.8126 16.6725 17.8126C16.5431 17.8126 16.4381 17.9175 16.4381 18.047C16.4381 18.1764 16.5431 18.2814 16.6725 18.2814Z" fill="#428BC1"/>
<path d="M17.4219 17.8593C17.5513 17.8593 17.6562 17.7543 17.6562 17.6249C17.6562 17.4954 17.5513 17.3905 17.4219 17.3905C17.2924 17.3905 17.1875 17.4954 17.1875 17.6249C17.1875 17.7543 17.2924 17.8593 17.4219 17.8593Z" fill="#428BC1"/>
<path d="M18.0325 17.2498C18.1619 17.2498 18.2669 17.1449 18.2669 17.0154C18.2669 16.886 18.1619 16.7811 18.0325 16.7811C17.903 16.7811 17.7981 16.886 17.7981 17.0154C17.7981 17.1449 17.903 17.2498 18.0325 17.2498Z" fill="#428BC1"/>
<path d="M18.455 16.5C18.5844 16.5 18.6894 16.3951 18.6894 16.2657C18.6894 16.1362 18.5844 16.0313 18.455 16.0313C18.3255 16.0313 18.2206 16.1362 18.2206 16.2657C18.2206 16.3951 18.3255 16.5 18.455 16.5Z" fill="#428BC1"/>
<path d="M18.6894 15.6562C18.8188 15.6562 18.9237 15.5513 18.9237 15.4218C18.9237 15.2924 18.8188 15.1875 18.6894 15.1875C18.5599 15.1875 18.455 15.2924 18.455 15.4218C18.455 15.5513 18.5599 15.6562 18.6894 15.6562Z" fill="#428BC1"/>
<path d="M18.69 14.8124C18.5493 14.8124 18.4556 14.7186 18.4087 14.6249C18.4087 14.4843 18.5025 14.3905 18.5962 14.3436C18.7368 14.3436 18.8306 14.4374 18.8775 14.5311C18.9243 14.6718 18.8306 14.7655 18.69 14.8124Z" fill="#428BC1"/>
<path d="M18.455 13.9686C18.5844 13.9686 18.6894 13.8636 18.6894 13.7342C18.6894 13.6047 18.5844 13.4998 18.455 13.4998C18.3255 13.4998 18.2206 13.6047 18.2206 13.7342C18.2206 13.8636 18.3255 13.9686 18.455 13.9686Z" fill="#428BC1"/>
<path d="M18.0325 13.2188C18.1619 13.2188 18.2669 13.1138 18.2669 12.9844C18.2669 12.855 18.1619 12.75 18.0325 12.75C17.903 12.75 17.7981 12.855 17.7981 12.9844C17.7981 13.1138 17.903 13.2188 18.0325 13.2188Z" fill="#428BC1"/>
<path d="M17.4219 12.6093C17.5513 12.6093 17.6562 12.5044 17.6562 12.375C17.6562 12.2455 17.5513 12.1406 17.4219 12.1406C17.2924 12.1406 17.1875 12.2455 17.1875 12.375C17.1875 12.5044 17.2924 12.6093 17.4219 12.6093Z" fill="#428BC1"/>
<path d="M16.9075 12.0468C16.8606 12.1875 16.72 12.2343 16.5794 12.1875C16.4387 12.1406 16.3919 12 16.4387 11.8593C16.4856 11.7187 16.6262 11.6718 16.7669 11.7187C16.9075 11.8125 16.9544 11.9531 16.9075 12.0468ZM16.0637 11.7656C16.0637 11.9062 15.9231 12 15.7825 11.9531C15.6419 11.9531 15.5481 11.8125 15.595 11.6718C15.595 11.5312 15.7356 11.4375 15.8762 11.4843C16.0169 11.5312 16.1106 11.6718 16.0637 11.7656ZM15.22 11.7187C15.22 11.8593 15.1262 11.9531 15.0325 12C14.8919 12 14.7981 11.9062 14.7512 11.8125C14.7512 11.6718 14.845 11.5781 14.9387 11.5312C15.0794 11.4843 15.22 11.5781 15.22 11.7187Z" fill="#428BC1"/>
<path d="M15.4081 15.7032C15.7964 15.7032 16.1112 15.3884 16.1112 15.0001C16.1112 14.6118 15.7964 14.297 15.4081 14.297C15.0198 14.297 14.705 14.6118 14.705 15.0001C14.705 15.3884 15.0198 15.7032 15.4081 15.7032Z" fill="#428BC1"/>
<path d="M15.4069 11.7189L15.3131 13.7345L15.4069 15.0001L15.5475 13.7345L15.4069 11.7189ZM14.5631 11.8126L14.985 13.8282L15.4069 15.0001L15.2194 13.7345L14.5631 11.8126Z" fill="#428BC1"/>
<path d="M13.7669 12.1406L14.7044 13.9687L15.4075 15L14.8919 13.8281L13.7669 12.1406ZM13.1106 12.6562L14.47 14.2031L15.4075 15L14.6106 14.0156L13.1106 12.6562Z" fill="#428BC1"/>
<path d="M12.5956 13.3595L14.2831 14.4845L15.4081 15.0001L14.3769 14.2501L12.5956 13.3595Z" fill="#428BC1"/>
<path d="M12.2675 14.1563L14.1894 14.7657L15.4081 15L14.2362 14.5782L12.2675 14.1563ZM12.1269 15L14.1894 15.0938L15.4081 15L14.1894 14.9063L12.1269 15Z" fill="#428BC1"/>
<path d="M12.2656 15.8439L14.2344 15.422L15.4062 15.0001L14.1875 15.2345L12.2656 15.8439ZM12.5937 16.6407L14.375 15.7501L15.4062 15.0001L14.2812 15.5157L12.5937 16.6407Z" fill="#428BC1"/>
<path d="M13.1106 17.297L14.6106 15.9845L15.4075 15.0001L14.47 15.797L13.1106 17.297ZM13.7669 17.8595L14.8919 16.1251L15.4075 15.0001L14.7044 16.0314L13.7669 17.8595Z" fill="#428BC1"/>
<path d="M14.5631 18.1876L15.2194 16.2657L15.4069 15.0001L14.985 16.172L14.5631 18.1876ZM15.4069 18.2814L15.5475 16.2657L15.4069 15.0001L15.3131 16.2657L15.4069 18.2814ZM16.2506 18.1876L15.8756 16.172L15.4069 15.0001L15.6412 16.2657L16.2506 18.1876Z" fill="#428BC1"/>
<path d="M17.0487 17.8595L16.1581 16.0314L15.4081 15.0001L15.9706 16.172L17.0487 17.8595ZM17.7519 17.297L16.3925 15.797L15.4081 15.0001L16.2519 15.9845L17.7519 17.297Z" fill="#428BC1"/>
<path d="M18.2675 16.6407L16.58 15.5157L15.4081 15L16.4394 15.75L18.2675 16.6407ZM18.5956 15.8438L16.6737 15.2344L15.4081 15L16.6269 15.4219L18.5956 15.8438ZM18.6894 15L16.6737 14.8594L15.4081 15L16.6737 15.0938L18.6894 15ZM18.5956 14.1563L16.6269 14.5782L15.4081 15L16.6737 14.7657L18.5956 14.1563Z" fill="#428BC1"/>
<path d="M18.2675 13.3593L16.4394 14.2499L15.4081 14.9999L16.58 14.4843L18.2675 13.3593ZM17.7519 12.703L16.2519 14.0155L15.4081 14.9999L16.3925 14.203L17.7519 12.703Z" fill="#428BC1"/>
<path d="M17.0487 12.1406L15.9706 13.875L15.4081 15L16.1581 13.9687L17.0487 12.1406Z" fill="#428BC1"/>
<path d="M16.2987 11.8125L15.6425 13.7344L15.4081 15L15.8769 13.8282L16.2987 11.8125Z" fill="#428BC1"/>
</svg>
